<svg width="24" height="24" viewBox="0 0 24 24" fill="none" xmlns="http://www.w3.org/2000/svg">
<path d="M8.28479 15.636C8.49479 15.513 8.72429 15.393 8.97329 15.279C8.76294 15.5926 8.53768 15.896 8.29829 16.188C7.87829 16.6935 7.55129 16.962 7.34579 17.046C7.32873 17.0532 7.31119 17.0592 7.29329 17.064C7.27832 17.0432 7.26526 17.0211 7.25429 16.998C7.17029 16.833 7.17329 16.674 7.31429 16.458C7.47329 16.2105 7.79279 15.927 8.28479 15.636ZM11.9673 13.1655C11.7888 13.203 11.6118 13.2405 11.4333 13.2825C11.6978 12.7645 11.9479 12.2393 12.1833 11.7075C12.4203 12.147 12.6755 12.5763 12.9483 12.9945C12.6228 13.0425 12.2943 13.0995 11.9673 13.1655ZM15.7548 14.574C15.5218 14.386 15.3037 14.1804 15.1023 13.959C15.4443 13.9665 15.7533 13.992 16.0203 14.04C16.4958 14.1255 16.7193 14.2605 16.7973 14.3535C16.8219 14.3795 16.8358 14.4137 16.8363 14.4495C16.831 14.5553 16.8001 14.6583 16.7463 14.7495C16.716 14.8226 16.6675 14.8866 16.6053 14.9355C16.5743 14.9545 16.5378 14.9624 16.5018 14.958C16.3668 14.9535 16.1148 14.859 15.7548 14.574ZM12.4173 7.455C12.3573 7.821 12.2553 8.241 12.1173 8.6985C12.0664 8.52719 12.0219 8.35408 11.9838 8.1795C11.8698 7.65 11.8533 7.2345 11.9148 6.9465C11.9718 6.681 12.0798 6.5745 12.2088 6.522C12.278 6.4915 12.3513 6.47129 12.4263 6.462C12.4458 6.507 12.4683 6.6 12.4743 6.759C12.4818 6.942 12.4638 7.1745 12.4173 7.4565V7.455Z" fill="#6750A4"/>
<path fill-rule="evenodd" clip-rule="evenodd" d="M6 0H18C18.7956 0 19.5587 0.316071 20.1213 0.87868C20.6839 1.44129 21 2.20435 21 3V21C21 21.7956 20.6839 22.5587 20.1213 23.1213C19.5587 23.6839 18.7956 24 18 24H6C5.20435 24 4.44129 23.6839 3.87868 23.1213C3.31607 22.5587 3 21.7956 3 21V3C3 2.20435 3.31607 1.44129 3.87868 0.87868C4.44129 0.316071 5.20435 0 6 0ZM6.2475 17.502C6.3825 17.772 6.5925 18.0165 6.9045 18.1305C7.215 18.243 7.5225 18.1905 7.7745 18.0855C8.2515 17.8905 8.727 17.4315 9.1635 16.9065C9.663 16.305 10.188 15.516 10.695 14.6415C11.6738 14.3513 12.6761 14.1475 13.6905 14.0325C14.1405 14.607 14.6055 15.102 15.0555 15.4575C15.4755 15.7875 15.96 16.062 16.4565 16.083C16.7269 16.0964 16.9947 16.0239 17.2215 15.876C17.454 15.7245 17.6265 15.5055 17.7525 15.252C17.8875 14.9805 17.97 14.697 17.9595 14.4075C17.95 14.1221 17.8443 13.8482 17.6595 13.6305C17.3205 13.2255 16.7655 13.0305 16.2195 12.933C15.5572 12.8304 14.8851 12.8052 14.217 12.858C13.6528 12.0604 13.1608 11.214 12.747 10.329C13.122 9.339 13.4025 8.403 13.527 7.638C13.581 7.311 13.6095 6.999 13.599 6.717C13.5971 6.43708 13.532 6.1612 13.4085 5.91C13.3373 5.77137 13.2362 5.65031 13.1125 5.55561C12.9887 5.46091 12.8454 5.39495 12.693 5.3625C12.39 5.298 12.078 5.3625 11.7915 5.478C11.226 5.703 10.9275 6.183 10.815 6.7125C10.7055 7.2225 10.755 7.8165 10.884 8.4165C11.016 9.0255 11.241 9.6885 11.529 10.359C11.0683 11.5047 10.5363 12.6204 9.936 13.6995C9.16296 13.9427 8.41782 14.267 7.713 14.667C7.158 14.997 6.6645 15.387 6.3675 15.8475C6.0525 16.3365 5.955 16.9185 6.2475 17.502Z" fill="#6750A4"/>
</svg>
